<svg version="1.1" id="Layer_1" xmlns="http://www.w3.org/2000/svg" xmlns:xlink="http://www.w3.org/1999/xlink" x="0px" y="0px"
	 width="100%" viewBox="0 0 509 588" enable-background="new 0 0 509 588" xml:space="preserve">
<path fill="#FEFEFE" opacity="1.000000" stroke="none" 
	d="
M1.000000,224.000000 
	C1.000000,149.350204 1.000000,75.200417 1.000000,1.025311 
	C170.611191,1.025311 340.222382,1.025311 509.916809,1.025311 
	C509.916809,196.899918 509.916809,392.799866 509.916809,588.849915 
	C340.333435,588.849915 170.666733,588.849915 1.000000,588.849915 
	C1.000000,467.444092 1.000000,345.972046 1.000000,224.000000 
M228.729202,16.129093 
	C224.816833,16.881437 220.931763,17.879519 216.984543,18.318285 
	C212.885925,18.773880 211.633270,20.369808 211.832230,24.709759 
	C212.548065,40.323803 212.906540,55.961735 213.017822,71.593361 
	C213.091949,82.005806 208.165863,90.044754 199.737839,96.006905 
	C187.363495,104.760757 173.419128,108.753494 158.446945,108.509888 
	C139.820175,108.206810 129.612808,99.316185 127.113876,81.000397 
	C125.725540,70.824661 125.604103,60.464195 125.157745,50.176311 
	C124.893669,44.089764 125.109444,37.982403 125.109444,31.795900 
	C124.047707,31.862648 123.365448,31.810007 122.730621,31.959198 
	C95.320152,38.401070 68.901482,47.627529 43.797340,60.430965 
	C42.407822,61.139637 41.095238,63.422195 41.012936,65.036705 
	C40.530128,74.507988 39.588284,84.066597 40.354675,93.469131 
	C42.300518,117.341728 48.599335,139.345108 71.150986,153.212265 
	C59.461388,164.892044 51.354214,178.579224 46.280785,193.858582 
	C42.419510,205.487381 39.348610,217.407700 36.484417,229.332428 
	C30.568781,253.961502 26.277866,278.944183 26.110008,304.286285 
	C25.935905,330.571350 26.946600,356.877106 27.962877,383.153564 
	C29.009888,410.224731 34.275116,436.457458 43.693851,462.003387 
	C57.823387,500.326233 81.636108,530.030151 118.355003,548.538879 
	C145.867752,562.407227 175.689835,567.366028 206.075455,568.945312 
	C224.862274,569.921814 243.713745,569.722290 262.537598,569.903748 
	C295.012390,570.216736 327.458862,570.142212 359.399719,562.883728 
	C395.184174,554.751770 425.293243,537.852539 447.252625,507.606323 
	C466.987518,480.424072 476.774414,449.126648 482.617310,416.951996 
	C487.202209,391.704468 488.038666,365.700409 489.455688,339.972687 
	C491.221466,307.912170 487.703918,276.147461 480.993958,244.781525 
	C477.942169,230.515701 474.698669,216.255463 470.674011,202.242004 
	C465.401001,183.882065 456.934937,167.065399 442.836700,153.066742 
	C456.683350,145.305893 464.301575,133.337967 468.828949,119.143829 
	C474.598877,101.054031 475.086761,82.512505 472.953339,63.832836 
	C472.799377,62.484825 471.117554,60.766361 469.739380,60.186012 
	C452.771393,53.040920 435.864777,45.712433 418.647430,39.212387 
	C409.569519,35.785213 399.915253,33.884731 389.933960,31.133034 
	C389.933960,42.626736 390.592712,53.325920 389.734680,63.902035 
	C388.989319,73.089012 387.270142,82.360962 384.606171,91.179970 
	C382.175781,99.225807 376.693848,105.351929 367.638519,107.065315 
	C346.793488,111.009445 328.083771,106.275650 311.600220,93.064056 
	C305.914398,88.506851 303.008148,82.101868 302.094116,74.929810 
	C301.505707,70.312729 300.934143,65.625275 301.092194,60.994530 
	C301.506042,48.869545 302.348053,36.759563 302.961670,24.640680 
	C303.083893,22.226639 304.470459,19.620481 300.067444,18.730450 
	C276.699707,14.006887 253.267502,12.344291 228.729202,16.129093 
z"/>
<path fill="#102E57" opacity="1.000000" stroke="none" 
	d="
M229.165344,16.075092 
	C253.267502,12.344291 276.699707,14.006887 300.067444,18.730450 
	C304.470459,19.620481 303.083893,22.226639 302.961670,24.640680 
	C302.348053,36.759563 301.506042,48.869545 301.092194,60.994530 
	C300.934143,65.625275 301.505707,70.312729 302.094116,74.929810 
	C303.008148,82.101868 305.914398,88.506851 311.600220,93.064056 
	C328.083771,106.275650 346.793488,111.009445 367.638519,107.065315 
	C376.693848,105.351929 382.175781,99.225807 384.606171,91.179970 
	C387.270142,82.360962 388.989319,73.089012 389.734680,63.902035 
	C390.592712,53.325920 389.933960,42.626736 389.933960,31.133034 
	C399.915253,33.884731 409.569519,35.785213 418.647430,39.212387 
	C435.864777,45.712433 452.771393,53.040920 469.739380,60.186012 
	C471.117554,60.766361 472.799377,62.484825 472.953339,63.832836 
	C475.086761,82.512505 474.598877,101.054031 468.828949,119.143829 
	C464.301575,133.337967 456.683350,145.305893 442.836700,153.066742 
	C456.934937,167.065399 465.401001,183.882065 470.674011,202.242004 
	C474.698669,216.255463 477.942169,230.515701 480.993958,244.781525 
	C487.703918,276.147461 491.221466,307.912170 489.455688,339.972687 
	C488.038666,365.700409 487.202209,391.704468 482.617310,416.951996 
	C476.774414,449.126648 466.987518,480.424072 447.252625,507.606323 
	C425.293243,537.852539 395.184174,554.751770 359.399719,562.883728 
	C327.458862,570.142212 295.012390,570.216736 262.537598,569.903748 
	C243.713745,569.722290 224.862274,569.921814 206.075455,568.945312 
	C175.689835,567.366028 145.867752,562.407227 118.355003,548.538879 
	C81.636108,530.030151 57.823387,500.326233 43.693851,462.003387 
	C34.275116,436.457458 29.009888,410.224731 27.962877,383.153564 
	C26.946600,356.877106 25.935905,330.571350 26.110008,304.286285 
	C26.277866,278.944183 30.568781,253.961502 36.484417,229.332428 
	C39.348610,217.407700 42.419510,205.487381 46.280785,193.858582 
	C51.354214,178.579224 59.461388,164.892044 71.150986,153.212265 
	C48.599335,139.345108 42.300518,117.341728 40.354675,93.469131 
	C39.588284,84.066597 40.530128,74.507988 41.012936,65.036705 
	C41.095238,63.422195 42.407822,61.139637 43.797340,60.430965 
	C68.901482,47.627529 95.320152,38.401070 122.730621,31.959198 
	C123.365448,31.810007 124.047707,31.862648 125.109444,31.795900 
	C125.109444,37.982403 124.893669,44.089764 125.157745,50.176311 
	C125.604103,60.464195 125.725540,70.824661 127.113876,81.000397 
	C129.612808,99.316185 139.820175,108.206810 158.446945,108.509888 
	C173.419128,108.753494 187.363495,104.760757 199.737839,96.006905 
	C208.165863,90.044754 213.091949,82.005806 213.017822,71.593361 
	C212.906540,55.961735 212.548065,40.323803 211.832230,24.709759 
	C211.633270,20.369808 212.885925,18.773880 216.984543,18.318285 
	C220.931763,17.879519 224.816833,16.881437 229.165344,16.075092 
M390.173035,472.656311 
	C393.446808,466.702759 397.209808,460.962067 399.908569,454.758362 
	C410.818542,429.679077 414.263336,402.935822 415.717743,376.009125 
	C417.785126,337.733887 418.156128,299.412750 413.890381,261.216644 
	C411.726624,241.841888 407.719299,222.902100 400.069824,204.818192 
	C391.279846,184.037903 377.412079,169.022842 354.841064,163.347443 
	C338.132782,159.146210 321.112640,157.279541 303.951569,157.050354 
	C279.957153,156.729935 255.956619,156.840607 231.958679,156.824173 
	C209.966171,156.809113 188.023560,157.244431 166.363083,161.878174 
	C142.165176,167.054749 124.342453,179.577576 114.736435,203.249619 
	C103.660507,230.543991 99.967102,259.171265 99.270012,288.111877 
	C98.536568,318.561646 99.219124,349.075104 100.246796,379.528229 
	C101.044304,403.160736 104.907387,426.435883 112.040527,449.131042 
	C119.552513,473.031647 134.654282,488.991974 158.969696,495.777344 
	C176.378799,500.635437 194.217041,502.626648 212.226501,502.810883 
	C236.889023,503.063263 261.555237,502.954437 286.219879,502.997162 
	C306.722900,503.032684 327.174774,502.465973 347.294373,497.894073 
	C364.024841,494.092285 379.400299,487.960541 390.173035,472.656311 
z"/>
<path fill="#FDFEFE" opacity="1.000000" stroke="none" 
	d="
M390.008362,472.974060 
	C379.400299,487.960541 364.024841,494.092285 347.294373,497.894073 
	C327.174774,502.465973 306.722900,503.032684 286.219879,502.997162 
	C261.555237,502.954437 236.889023,503.063263 212.226501,502.810883 
	C194.217041,502.626648 176.378799,500.635437 158.969696,495.777344 
	C134.654282,488.991974 119.552513,473.031647 112.040527,449.131042 
	C104.907387,426.435883 101.044304,403.160736 100.246796,379.528229 
	C99.219124,349.075104 98.536568,318.561646 99.270012,288.111877 
	C99.967102,259.171265 103.660507,230.543991 114.736435,203.249619 
	C124.342453,179.577576 142.165176,167.054749 166.363083,161.878174 
	C188.023560,157.244431 209.966171,156.809113 231.958679,156.824173 
	C255.956619,156.840607 279.957153,156.729935 303.951569,157.050354 
	C321.112640,157.279541 338.132782,159.146210 354.841064,163.347443 
	C377.412079,169.022842 391.279846,184.037903 400.069824,204.818192 
	C407.719299,222.902100 411.726624,241.841888 413.890381,261.216644 
	C418.156128,299.412750 417.785126,337.733887 415.717743,376.009125 
	C414.263336,402.935822 410.818542,429.679077 399.908569,454.758362 
	C397.209808,460.962067 393.446808,466.702759 390.008362,472.974060 
M302.846008,371.509155 
	C302.846008,400.243103 302.846008,428.977051 302.846008,457.670197 
	C324.550415,457.670197 345.475952,457.670197 366.641296,457.670197 
	C366.641296,371.029877 366.641296,284.652161 366.641296,198.092499 
	C345.327423,198.092499 324.271057,198.092499 302.852203,198.092499 
	C302.852203,207.000687 302.852448,215.629807 302.852173,224.258942 
	C302.851624,242.254120 302.912354,260.249603 302.823547,278.244354 
	C302.780579,286.948242 300.714142,289.800354 292.177795,289.937439 
	C268.903534,290.311127 245.616135,290.249268 222.340118,289.921295 
	C214.186234,289.806427 211.980927,286.792755 211.979065,278.555389 
	C211.973419,253.562088 211.984116,228.568802 211.988373,203.575500 
	C211.988678,201.796066 211.988434,200.016632 211.988434,198.034180 
	C190.715668,198.034180 169.974930,198.034180 148.995178,198.034180 
	C148.995178,284.653351 148.995178,371.035034 148.995178,457.530640 
	C170.085037,457.530640 190.944000,457.530640 211.980881,457.530640 
	C211.980881,455.312286 211.980988,453.485046 211.980850,451.657806 
	C211.978516,421.499207 211.964111,391.340637 211.981995,361.182037 
	C211.986694,353.253571 214.600021,350.447906 222.583984,349.926270 
	C228.729630,349.524780 234.890991,349.051971 241.041641,349.098602 
	C258.193146,349.228546 275.347595,349.450195 292.490753,349.970001 
	C300.061127,350.199554 302.484741,353.018585 302.799316,360.518463 
	C302.938843,363.845337 302.838593,367.182312 302.846008,371.509155 
z"/>
<path fill="#102E57" opacity="1.000000" stroke="none" 
	d="
M302.846558,371.011902 
	C302.838593,367.182312 302.938843,363.845337 302.799316,360.518463 
	C302.484741,353.018585 300.061127,350.199554 292.490753,349.970001 
	C275.347595,349.450195 258.193146,349.228546 241.041641,349.098602 
	C234.890991,349.051971 228.729630,349.524780 222.583984,349.926270 
	C214.600021,350.447906 211.986694,353.253571 211.981995,361.182037 
	C211.964111,391.340637 211.978516,421.499207 211.980850,451.657806 
	C211.980988,453.485046 211.980881,455.312286 211.980881,457.530640 
	C190.944000,457.530640 170.085037,457.530640 148.995178,457.530640 
	C148.995178,371.035034 148.995178,284.653351 148.995178,198.034180 
	C169.974930,198.034180 190.715668,198.034180 211.988434,198.034180 
	C211.988434,200.016632 211.988678,201.796066 211.988373,203.575500 
	C211.984116,228.568802 211.973419,253.562088 211.979065,278.555389 
	C211.980927,286.792755 214.186234,289.806427 222.340118,289.921295 
	C245.616135,290.249268 268.903534,290.311127 292.177795,289.937439 
	C300.714142,289.800354 302.780579,286.948242 302.823547,278.244354 
	C302.912354,260.249603 302.851624,242.254120 302.852173,224.258942 
	C302.852448,215.629807 302.852203,207.000687 302.852203,198.092499 
	C324.271057,198.092499 345.327423,198.092499 366.641296,198.092499 
	C366.641296,284.652161 366.641296,371.029877 366.641296,457.670197 
	C345.475952,457.670197 324.550415,457.670197 302.846008,457.670197 
	C302.846008,428.977051 302.846008,400.243103 302.846558,371.011902 
z"/>
</svg>