<?xml version="1.0" encoding="UTF-8"?>
<svg width="600" height="600" enable-background="new 0 0 509 588" version="1.1" viewBox="0 0 600 600" xml:space="preserve" xmlns="http://www.w3.org/2000/svg">
<path d="m-25.1 210v-223h509v588h-509v-365m228-208c-3.91 0.752-7.8 1.75-11.7 2.19-4.1 0.456-5.35 2.05-5.15 6.39 0.716 15.6 1.07 31.3 1.19 46.9 0.0741 10.4-4.85 18.5-13.3 24.4-12.4 8.75-26.3 12.7-41.3 12.5-18.6-0.303-28.8-9.19-31.3-27.5-1.39-10.2-1.51-20.5-1.96-30.8-0.264-6.09-0.0483-12.2-0.0483-18.4-1.06 0.0668-1.74 0.0141-2.38 0.163-27.4 6.44-53.8 15.7-78.9 28.5-1.39 0.709-2.7 2.99-2.78 4.61-0.483 9.47-1.42 19-0.658 28.4 1.95 23.9 8.24 45.9 30.8 59.7-11.7 11.7-19.8 25.4-24.9 40.6-3.86 11.6-6.93 23.5-9.8 35.5-5.92 24.6-10.2 49.6-10.4 75-0.174 26.3 0.837 52.6 1.85 78.9 1.05 27.1 6.31 53.3 15.7 78.8 14.1 38.3 37.9 68 74.7 86.5 27.5 13.9 57.3 18.8 87.7 20.4 18.8 0.976 37.6 0.777 56.5 0.958 32.5 0.313 64.9 0.238 96.9-7.02 35.8-8.13 65.9-25 87.9-55.3 19.7-27.2 29.5-58.5 35.4-90.7 4.58-25.2 5.42-51.3 6.84-77 1.77-32.1-1.75-63.8-8.46-95.2-3.05-14.3-6.3-28.5-10.3-42.5-5.27-18.4-13.7-35.2-27.8-49.2 13.8-7.76 21.5-19.7 26-33.9 5.77-18.1 6.26-36.6 4.12-55.3-0.154-1.35-1.84-3.07-3.21-3.65-17-7.15-33.9-14.5-51.1-21-9.08-3.43-18.7-5.33-28.7-8.08 0 11.5 0.659 22.2-0.199 32.8-0.745 9.19-2.46 18.5-5.13 27.3-2.43 8.05-7.91 14.2-17 15.9-20.8 3.94-39.6-0.79-56-14-5.69-4.56-8.59-11-9.51-18.1-0.588-4.62-1.16-9.3-1-13.9 0.414-12.1 1.26-24.2 1.87-36.4 0.122-2.41 1.51-5.02-2.89-5.91-23.4-4.72-46.8-6.39-71.3-2.6z" fill="none"/>

<path d="m364 459c-10.6 15-26 21.1-42.7 24.9-20.1 4.57-40.6 5.14-61.1 5.1-24.7-0.0427-49.3 0.0661-74-0.186-18-0.184-35.8-2.18-53.3-7.03-24.3-6.79-39.4-22.7-46.9-46.6-7.13-22.7-11-46-11.8-69.6-1.03-30.5-1.71-61-0.977-91.4 0.697-28.9 4.39-57.6 15.5-84.9 9.61-23.7 27.4-36.2 51.6-41.4 21.7-4.63 43.6-5.07 65.6-5.05 24 0.0164 48-0.0942 72 0.226 17.2 0.229 34.2 2.1 50.9 6.3 22.6 5.68 36.4 20.7 45.2 41.5 7.65 18.1 11.7 37 13.8 56.4 4.27 38.2 3.89 76.5 1.83 115-1.45 26.9-4.9 53.7-15.8 78.7-2.7 6.2-6.46 11.9-9.9 18.2m-87.2-101v86.2h63.8v-260h-63.8c0 8.91 2.5e-4 17.5-3e-5 26.2-5.5e-4 18 0.0602 36-0.0286 54-0.043 8.7-2.11 11.6-10.6 11.7-23.3 0.374-46.6 0.312-69.8-0.0161-8.15-0.115-10.4-3.13-10.4-11.4-6e-3 -25 5e-3 -50 9e-3 -75 3.1e-4 -1.78 6e-5 -3.56 6e-5 -5.54h-63v259h63c0-2.22 1.1e-4 -4.05-3e-5 -5.87-2e-3 -30.2-0.0167-60.3 1e-3 -90.5 5e-3 -7.93 2.62-10.7 10.6-11.3 6.15-0.401 12.3-0.874 18.5-0.828 17.2 0.13 34.3 0.352 51.4 0.871 7.57 0.23 9.99 3.05 10.3 10.5 0.14 3.33 0.0393 6.66 0.0467 11z" fill="none"/>
<g transform="translate(68.1 22)" fill="#102e57"><path d="m203 2.04c24.1-3.73 47.5-2.07 70.9 2.66 4.4 0.89 3.02 3.5 2.89 5.91-0.614 12.1-1.46 24.2-1.87 36.4-0.158 4.63 0.414 9.32 1 13.9 0.914 7.17 3.82 13.6 9.51 18.1 16.5 13.2 35.2 17.9 56 14 9.06-1.71 14.5-7.84 17-15.9 2.66-8.82 4.38-18.1 5.13-27.3 0.858-10.6 0.199-21.3 0.199-32.8 9.98 2.75 19.6 4.65 28.7 8.08 17.2 6.5 34.1 13.8 51.1 21 1.38 0.58 3.06 2.3 3.21 3.65 2.13 18.7 1.65 37.2-4.12 55.3-4.53 14.2-12.1 26.2-26 33.9 14.1 14 22.6 30.8 27.8 49.2 4.02 14 7.27 28.3 10.3 42.5 6.71 31.4 10.2 63.1 8.46 95.2-1.42 25.7-2.25 51.7-6.84 77-5.84 32.2-15.6 63.5-35.4 90.7-22 30.2-52.1 47.1-87.9 55.3-31.9 7.26-64.4 7.33-96.9 7.02-18.8-0.181-37.7 0.0181-56.5-0.958-30.4-1.58-60.2-6.54-87.7-20.4-36.7-18.5-60.5-48.2-74.7-86.5-9.42-25.5-14.7-51.8-15.7-78.8-1.02-26.3-2.03-52.6-1.85-78.9 0.168-25.3 4.46-50.3 10.4-75 2.86-11.9 5.94-23.8 9.8-35.5 5.07-15.3 13.2-29 24.9-40.6-22.6-13.9-28.9-35.9-30.8-59.7-0.766-9.4 0.175-19 0.658-28.4 0.0823-1.61 1.39-3.9 2.78-4.61 25.1-12.8 51.5-22 78.9-28.5 0.635-0.149 1.32-0.0966 2.38-0.163 0 6.19-0.216 12.3 0.0483 18.4 0.446 10.3 0.568 20.6 1.96 30.8 2.5 18.3 12.7 27.2 31.3 27.5 15 0.244 28.9-3.75 41.3-12.5 8.43-5.96 13.4-14 13.3-24.4-0.111-15.6-0.47-31.3-1.19-46.9-0.199-4.34 1.05-5.94 5.15-6.39 3.95-0.439 7.83-1.44 12.2-2.24m161 457c3.27-5.95 7.04-11.7 9.74-17.9 10.9-25.1 14.4-51.8 15.8-78.7 2.07-38.3 2.44-76.6-1.83-115-2.16-19.4-6.17-38.3-13.8-56.4-8.79-20.8-22.7-35.8-45.2-41.5-16.7-4.2-33.7-6.07-50.9-6.3-24-0.32-48-0.21-72-0.226-22-0.0151-43.9 0.42-65.6 5.05-24.2 5.18-42 17.7-51.6 41.4-11.1 27.3-14.8 55.9-15.5 84.9-0.733 30.4-0.0509 61 0.977 91.4 0.798 23.6 4.66 46.9 11.8 69.6 7.51 23.9 22.6 39.9 46.9 46.6 17.4 4.86 35.2 6.85 53.3 7.03 24.7 0.252 49.3 0.144 74 0.186 20.5 0.0355 41-0.531 61.1-5.1 16.7-3.8 32.1-9.93 42.9-25.2z"/><path d="m277 357c-8e-3 -3.83 0.0923-7.17-0.0472-10.5-0.315-7.5-2.74-10.3-10.3-10.5-17.1-0.52-34.3-0.741-51.4-0.871-6.15-0.0466-12.3 0.426-18.5 0.828-7.98 0.522-10.6 3.33-10.6 11.3-0.0179 30.2-3e-3 60.3-1e-3 90.5 1.4e-4 1.83 3e-5 3.65 3e-5 5.87h-63v-259h63c0 1.98 2.5e-4 3.76-6e-5 5.54-4e-3 25-0.0149 50-9e-3 75 2e-3 8.24 2.21 11.3 10.4 11.4 23.3 0.328 46.6 0.39 69.8 0.0161 8.54-0.137 10.6-2.99 10.6-11.7 0.0888-18 0.0281-36 0.0286-54 2.8e-4 -8.63 3e-5 -17.3 3e-5 -26.2h63.8v260h-63.8c0-28.7 0-57.4 5.5e-4 -86.7z"/></g>
</svg>
